<?xml version="1.0" encoding="utf-8"?>
<!-- Svg Vector Icons : http://www.onlinewebfonts.com/icon -->
<!DOCTYPE svg PUBLIC "-//W3C//DTD SVG 1.1//EN" "http://www.w3.org/Graphics/SVG/1.1/DTD/svg11.dtd">
<svg version="1.1" xmlns="http://www.w3.org/2000/svg" xmlns:xlink="http://www.w3.org/1999/xlink" x="0px" y="0px" viewBox="0 0 256 256" enable-background="new 0 0 256 256" xml:space="preserve">
<metadata> Svg Vector Icons : http://www.onlinewebfonts.com/icon </metadata>
<g><g><g><path fill="#000000" d="M112.3,13.9v3.9H128h15.7v-3.9V10H128h-15.7V13.9z"/><path fill="#000000" d="M80.8,57.2v31.5H128h47.2V57.2V25.7H128H80.8V57.2z M112.3,42.1c2.6,1.3,3.9,3.7,3.9,6.7s-1.4,5.4-3.9,6.7c-2.6,1.4-4.5,1.4-7.2,0.1c-2.8-1.3-4.1-3.5-4.1-6.8c0-3.3,1.3-5.5,4.1-6.8C107.7,40.7,109.6,40.7,112.3,42.1z M151.6,42.1c2.6,1.3,3.9,3.7,3.9,6.7s-1.4,5.4-3.9,6.7c-2.6,1.4-4.5,1.4-7.2,0.1c-2.8-1.3-4.2-3.7-4.2-6.8C140.2,42.7,146.1,39.2,151.6,42.1z M143.7,69v3.9H128h-15.7V69v-3.9H128h15.7V69z"/><path fill="#000000" d="M65.1,53.3v11.8H69h3.9V53.3V41.5H69h-3.9V53.3z"/><path fill="#000000" d="M183.1,53.3v11.8h3.9h3.9V53.3V41.5H187h-3.9V53.3z"/><path fill="#000000" d="M10,89.8v8.9l8.1,4.1c8.1,4,8.1,4,8.1,5.7c0,5.1,3.6,14,7.9,19.7c6.5,8.6,18.5,15,28.1,15h2.9v19.9v19.9h11.8h11.8v8.5v8.5l-2.5,1.2c-3.3,1.6-7.1,5-9.3,8.5c-2.5,3.9-3.5,8.1-3.6,14.8l0,5.5l23.5,0.1c22.1,0.1,23.5,0.1,23.5-0.7c0.3-4.3-0.3-12.1-1-14.5c-1.8-5.7-6.2-10.9-11.8-13.6l-3-1.5v-8.4v-8.4H128h23.6l0,8.5v8.5l-3,1.4c-5.8,2.8-10.7,9.2-12.1,15.9c-0.3,1.4-0.5,4.9-0.5,7.7v5.2h23.6h23.6v-5.2c0-2.8-0.2-6.3-0.5-7.7c-1.4-6.6-6.4-13.2-12.1-15.9l-3-1.4v-8.5l0-8.5h11.8h11.8v-19.9v-19.9h2.6c8.5,0,18.3-4.5,25.2-11.6c5.7-5.8,10.1-14.7,10.9-21.8l0.3-3.1l8.1-4l8-4v-8.9v-9h-3.9h-3.9v6.5v6.5l-5.9,2.9l-5.9,2.9l-5.9-2.9l-5.9-2.9v-6.5v-6.5h-3.9h-3.9v9v8.9l7.6,3.8c7.6,3.8,7.6,3.8,7.6,5.5c0,2.5-1.8,8-3.8,11.6c-4.8,8.7-15.9,15.7-24.8,15.7h-2.4v-15.5v-15.5h-23.6h-23.6v-3.9v-3.9H128h-15.7v3.9v3.9H88.7H65.1v15.5v15.5h-2.4c-3.3,0-7.6-1.2-11.9-3.3c-4.6-2.2-10.8-8.3-13.1-12.7c-1.8-3.5-3.6-9-3.6-11.4c0-1.7,0-1.7,7.6-5.5l7.6-3.8v-8.9v-9h-3.9h-3.9v6.5v6.5l-5.9,2.9l-5.9,2.9l-5.9-2.9l-5.9-2.9v-6.5v-6.5h-3.9H10V89.8z M137.7,125.3l2.6,0.9l-3.1,3.1l-3.1,3l-3-0.4c-12.6-1.7-24.1,6.8-26.3,19.5l-0.6,3.5h-3.9h-3.9l0.3-3.1c0.2-1.7,1-4.8,1.7-7c3.3-9.8,11.4-17.3,21.7-20.1C123.9,123.8,134.1,124.1,137.7,125.3z M155.5,133.2l-2.7,2.7l1.1,1.8c3.2,5.4,5.4,11.8,5.5,16v1.4h-3.8h-3.8l-0.6-3.4c-0.5-3.1-2.3-7.5-3.7-9.2c-0.4-0.5-1.8,0.6-6.3,5.1c-5.5,5.4-5.8,5.9-5.5,7.4c0.3,2.2-1.4,5.8-3.5,7.1c-2.2,1.3-6.2,1.3-8.5,0c-1.8-1.1-3.6-4.5-3.6-6.6c0-2.2,1.9-5.5,3.6-6.6c1.1-0.6,2.5-1,4-1h2.4l11.3-11.3l11.3-11.3l2.7,2.7l2.7,2.7L155.5,133.2z"/><path fill="#000000" d="M72.9,242.1v3.9h23.6h23.6v-3.9v-3.9H96.5H72.9V242.1L72.9,242.1z"/><path fill="#000000" d="M135.9,242.1v3.9h23.6h23.6v-3.9v-3.9h-23.6h-23.6V242.1z"/></g></g></g>
</svg>